<svg id="visual" viewBox="0 0 900 600" width="900" height="600" xmlns="http://www.w3.org/2000/svg" xmlns:xlink="http://www.w3.org/1999/xlink" version="1.1"><rect x="0" y="0" width="900" height="600" fill="#001220"></rect><path d="M0 373L21.5 369.8C43 366.7 86 360.3 128.8 358C171.7 355.7 214.3 357.3 257.2 365.2C300 373 343 387 385.8 386.8C428.7 386.7 471.3 372.3 514.2 368.5C557 364.7 600 371.3 642.8 376.7C685.7 382 728.3 386 771.2 394.2C814 402.3 857 414.7 878.5 420.8L900 427L900 601L878.5 601C857 601 814 601 771.2 601C728.3 601 685.7 601 642.8 601C600 601 557 601 514.2 601C471.3 601 428.7 601 385.8 601C343 601 300 601 257.2 601C214.3 601 171.7 601 128.8 601C86 601 43 601 21.5 601L0 601Z" fill="#fa7268"></path><path d="M0 422L21.5 417.5C43 413 86 404 128.8 411.5C171.7 419 214.3 443 257.2 453.3C300 463.7 343 460.3 385.8 450.3C428.7 440.3 471.3 423.7 514.2 426.8C557 430 600 453 642.8 460.2C685.7 467.3 728.3 458.7 771.2 458.7C814 458.7 857 467.3 878.5 471.7L900 476L900 601L878.5 601C857 601 814 601 771.2 601C728.3 601 685.7 601 642.8 601C600 601 557 601 514.2 601C471.3 601 428.7 601 385.8 601C343 601 300 601 257.2 601C214.3 601 171.7 601 128.8 601C86 601 43 601 21.5 601L0 601Z" fill="#ef5f67"></path><path d="M0 465L21.5 469.8C43 474.7 86 484.3 128.8 486.7C171.7 489 214.3 484 257.2 481.5C300 479 343 479 385.8 476.3C428.7 473.7 471.3 468.3 514.2 466C557 463.7 600 464.3 642.8 463.8C685.7 463.3 728.3 461.7 771.2 461.5C814 461.3 857 462.7 878.5 463.3L900 464L900 601L878.5 601C857 601 814 601 771.2 601C728.3 601 685.7 601 642.8 601C600 601 557 601 514.2 601C471.3 601 428.7 601 385.8 601C343 601 300 601 257.2 601C214.3 601 171.7 601 128.8 601C86 601 43 601 21.5 601L0 601Z" fill="#e34c67"></path><path d="M0 492L21.5 498.3C43 504.7 86 517.3 128.8 516.3C171.7 515.3 214.3 500.7 257.2 498C300 495.3 343 504.7 385.8 511C428.7 517.3 471.3 520.7 514.2 517.8C557 515 600 506 642.8 503.5C685.7 501 728.3 505 771.2 510.8C814 516.7 857 524.3 878.5 528.2L900 532L900 601L878.5 601C857 601 814 601 771.2 601C728.3 601 685.7 601 642.8 601C600 601 557 601 514.2 601C471.3 601 428.7 601 385.8 601C343 601 300 601 257.2 601C214.3 601 171.7 601 128.8 601C86 601 43 601 21.5 601L0 601Z" fill="#d53867"></path><path d="M0 555L21.5 556.7C43 558.3 86 561.7 128.8 556.8C171.7 552 214.3 539 257.2 537C300 535 343 544 385.8 546.5C428.7 549 471.3 545 514.2 543.7C557 542.3 600 543.7 642.8 542C685.7 540.3 728.3 535.7 771.2 536C814 536.3 857 541.7 878.5 544.3L900 547L900 601L878.5 601C857 601 814 601 771.2 601C728.3 601 685.7 601 642.8 601C600 601 557 601 514.2 601C471.3 601 428.7 601 385.8 601C343 601 300 601 257.2 601C214.3 601 171.7 601 128.8 601C86 601 43 601 21.5 601L0 601Z" fill="#c62368"></path></svg>